<?xml version="1.0" encoding="UTF-8"?>
<svg version="1.1" xmlns="http://www.w3.org/2000/svg" width="1617" height="313">
<path d="M0 0 C26.50519316 -0.9038429 52.01066982 3.40036272 74.96289062 17.078125 C75.87296875 17.60535156 76.78304687 18.13257812 77.72070312 18.67578125 C80.15803 20.10837933 82.56112836 21.5868347 84.96289062 23.078125 C85.85492188 23.60921875 86.74695313 24.1403125 87.66601562 24.6875 C93.54204174 28.2656388 98.61600352 32.20686171 103.63867188 36.90625 C105.65515939 38.79056439 107.71844624 40.56264968 109.83789062 42.328125 C134.67541655 64.11103584 153.0545341 95.90650189 155.96289062 129.078125 C156.11055793 132.22307552 156.14961515 135.36358615 156.16601562 138.51171875 C156.1717157 139.38852798 156.17741577 140.26533722 156.18328857 141.16871643 C156.19267686 143.0166811 156.19924777 144.86466204 156.203125 146.71264648 C156.21275733 149.4773656 156.24380995 152.2413163 156.27539062 155.00585938 C156.4889196 190.75556779 144.71647 223.75268798 119.57617188 249.45703125 C118.37246633 250.66478205 117.16804733 251.87182224 115.96289062 253.078125 C115.37435303 253.68205078 114.78581543 254.28597656 114.17944336 254.90820312 C110.45113555 258.71135583 106.60669685 262.1875906 102.40039062 265.453125 C101.79888184 265.92081299 101.19737305 266.38850098 100.57763672 266.87036133 C74.91641513 286.53862263 46.36070731 298.23789634 13.96289062 299.078125 C12.33287109 299.14 12.33287109 299.14 10.66992188 299.203125 C-20.16684234 299.86896606 -49.93600101 293.84376022 -77.03710938 279.078125 C-78.09542969 278.51222656 -79.15375 277.94632812 -80.24414062 277.36328125 C-110.43026914 260.54925161 -137.04776029 230.64755547 -146.9230957 197.14868164 C-150.89070004 182.90691371 -152.69689201 169.4162358 -152.47460938 154.640625 C-152.46745911 153.79027679 -152.46030884 152.93992859 -152.45294189 152.06381226 C-152.34364468 139.57125771 -152.03797772 127.26493982 -149.03710938 115.078125 C-148.83843262 114.26472656 -148.63975586 113.45132813 -148.43505859 112.61328125 C-143.93825922 94.90902845 -136.54757005 78.99014129 -126.03710938 64.078125 C-125.64797363 63.52141113 -125.25883789 62.96469727 -124.85791016 62.39111328 C-111.62650507 43.69585882 -93.20292583 30.51388668 -73.03710938 20.078125 C-72.37517578 19.73152832 -71.71324219 19.38493164 -71.03125 19.02783203 C-49.23685162 7.75468477 -24.54990059 0.94151105 0 0 Z " fill="#F50007" transform="translate(175.037109375,7.921875)"/>
<path d="M0 0 C17.16 0 34.32 0 52 0 C62.35714525 21.02192848 71.85644162 42.00973976 80 64 C86.0687804 51.21619809 91.74132385 38.26933477 97.39233398 25.29663086 C98.56580785 22.60454376 99.74180918 19.91357082 100.91796875 17.22265625 C101.26909225 16.4141774 101.62021576 15.60569855 101.98197937 14.77272034 C102.31945694 14.00088913 102.65693451 13.22905792 103.00463867 12.43383789 C103.29441086 11.76848526 103.58418304 11.10313263 103.88273621 10.4176178 C105.50574086 6.90564063 107.26979032 3.46041936 109 0 C121.54 0 134.08 0 147 0 C155.03738387 16.07476774 155.03738387 16.07476774 158.2265625 23.51171875 C158.58213226 24.33146683 158.93770203 25.1512149 159.30404663 25.99580383 C160.41470828 28.55813045 161.52012228 31.12267483 162.625 33.6875 C163.73807069 36.26256864 164.85228087 38.83713887 165.96737671 41.41133118 C166.65336809 42.99583901 167.33808063 44.5809015 168.02114868 46.16667175 C170.60399978 52.14640436 173.28964688 58.07707643 176 64 C176.26229401 63.33094131 176.52458801 62.66188263 176.79483032 61.97254944 C179.28411054 55.62848654 181.78366783 49.28855867 184.29445839 42.952981 C185.5845356 39.69664636 186.87076833 36.43890691 188.14794922 33.17749023 C189.62076589 29.41701176 191.11075954 25.66354096 192.6015625 21.91015625 C193.05181793 20.75354996 193.50207336 19.59694366 193.9659729 18.4052887 C194.40597626 17.30482712 194.84597961 16.20436554 195.29931641 15.07055664 C195.67682037 14.11347305 196.05432434 13.15638947 196.44326782 12.17030334 C196.95698944 11.12410324 197.47071106 10.07790314 198 9 C198.27353491 8.2263507 198.54706982 7.4527014 198.82889366 6.65560818 C200.22275872 3.62987976 201.3427626 2.04299105 204 0 C210.38805765 -1.36648484 216.71901212 -1.13723381 223.22412109 -1.02172852 C225.2151274 -1.01918919 227.20614214 -1.02061614 229.19714355 -1.02571106 C234.59818142 -1.02829349 239.99742054 -0.97538215 245.39804029 -0.91254544 C251.04339445 -0.85628387 256.68878985 -0.85099694 262.3343811 -0.84031677 C273.02311797 -0.81234337 283.71102639 -0.73848791 294.39939845 -0.64817137 C306.56847542 -0.54757503 318.73759197 -0.49809067 330.90698123 -0.45291245 C355.93846237 -0.35883856 380.96914983 -0.19872271 406 0 C406 11.55 406 23.1 406 35 C390.82 35 375.64 35 360 35 C360 63.71 360 92.42 360 122 C343.17 122 326.34 122 309 122 C309 93.29 309 64.58 309 35 C292.5 35 276 35 259 35 C256 23 256 23 255 18 C252.63693799 20.94156918 251.0152675 23.85175975 249.4609375 27.28515625 C248.97157715 28.35548096 248.4822168 29.42580566 247.97802734 30.52856445 C247.18452881 32.27786255 247.18452881 32.27786255 246.375 34.0625 C245.21298178 36.60110911 244.04518067 39.13701896 242.875 41.671875 C242.56686371 42.33939285 242.25872742 43.00691071 241.94125366 43.69465637 C238.19239039 51.78535015 234.28543813 59.79898971 230.375 67.8125 C230.01254181 68.55533234 229.65008362 69.29816467 229.27664185 70.06350708 C228.91601654 70.80253265 228.55539124 71.54155823 228.18383789 72.30297852 C227.46757365 73.77097803 226.75134597 75.23899538 226.03515625 76.70703125 C225.68767838 77.41908218 225.3402005 78.13113312 224.98219299 78.86476135 C221.45783654 86.09568111 217.99505983 93.35571572 214.57373047 100.63598633 C205.96498357 118.80703699 205.96498357 118.80703699 202 122 C199.81697083 122.36076355 199.81697083 122.36076355 197.25317383 122.34057617 C195.79192078 122.34003235 195.79192078 122.34003235 194.30114746 122.33947754 C193.28008911 122.32412964 192.25903076 122.30878174 191.20703125 122.29296875 C190.26645874 122.28994751 189.32588623 122.28692627 188.35681152 122.28381348 C184.84192946 122.26811257 181.32720376 122.22622857 177.8125 122.1875 C169.954375 122.125625 162.09625 122.06375 154 122 C142.12 92.3 142.12 92.3 130 62 C123.24977801 72.84432334 123.24977801 72.84432334 117.6875 84.125 C117.15008179 85.34171387 117.15008179 85.34171387 116.60180664 86.58300781 C111.48759198 98.2832005 106.77281744 110.15857951 102 122 C86.16 122 70.32 122 54 122 C41.58911133 97.17822266 29.17822266 72.35644531 16.76733398 47.53466797 C16.08352913 46.16875015 16.08352913 46.16875015 15.38591003 44.77523804 C14.49749632 42.99615602 13.61265807 41.21528344 12.73164368 39.43252563 C10.76696135 35.46625361 8.76939585 31.5423362 6.59667969 27.68554688 C6.22409027 27.0035321 5.85150085 26.32151733 5.46762085 25.61883545 C4.49049262 23.83950545 3.48377996 22.0765043 2.47412109 20.31542969 C1 16 1 16 0 0 Z " fill="#FFFFFF" transform="translate(695,87)"/>
<path d="M0 0 C2.88221311 2.7588659 5.48946628 5.64382664 7.98828125 8.74609375 C8.43091309 9.29023926 8.87354492 9.83438477 9.32958984 10.39501953 C22.21619996 26.51602514 31.76769797 44.86614177 41.08886719 63.18603516 C41.40014557 63.79737808 41.71142395 64.40872101 42.03213501 65.03858948 C42.88220064 66.71136749 43.7285735 68.38602061 44.57470703 70.06079102 C45.98764726 72.85701353 45.98764726 72.85701353 47.98828125 75.74609375 C51.74097106 70.19077132 55.49229897 64.63453082 59.2427063 59.07766724 C60.57004713 57.11112585 61.89758125 55.14471491 63.22531128 53.17843628 C69.92398467 43.25703977 76.61843906 33.33358261 83.2265625 23.3515625 C83.69003082 22.65222595 84.15349915 21.9528894 84.63101196 21.23236084 C86.75860458 18.02076459 88.88102921 14.80595068 90.99511719 11.58544922 C91.74397616 10.45269073 92.49298958 9.32003433 93.2421875 8.1875 C93.87455322 7.22529541 94.50691895 6.26309082 95.15844727 5.27172852 C99.73641299 -1.04702471 99.73641299 -1.04702471 103.89898682 -1.73492432 C105.0270575 -1.72604187 106.15512817 -1.71715942 107.31738281 -1.70800781 C108.61627441 -1.70752441 109.91516602 -1.70704102 111.25341797 -1.70654297 C112.6285886 -1.68640271 114.00375163 -1.6657365 115.37890625 -1.64453125 C116.63300293 -1.64050293 117.88709961 -1.63647461 119.17919922 -1.63232422 C123.86570863 -1.61138967 128.55200957 -1.55554435 133.23828125 -1.50390625 C143.71578125 -1.42140625 154.19328125 -1.33890625 164.98828125 -1.25390625 C164.98828125 39.00609375 164.98828125 79.26609375 164.98828125 120.74609375 C146.83828125 120.74609375 128.68828125 120.74609375 109.98828125 120.74609375 C108.71150635 118.19254396 108.70247399 116.1410455 108.50756836 113.28662109 C108.42756088 112.14558929 108.34755341 111.0045575 108.26512146 109.82894897 C108.18278763 108.59246613 108.1004538 107.35598328 108.015625 106.08203125 C107.92825577 104.81968658 107.84088654 103.55734192 107.75086975 102.25674438 C107.51930782 98.89993323 107.29145257 95.54291169 107.06536865 92.18572998 C106.8337815 88.76032606 106.5973535 85.33525671 106.36132812 81.91015625 C105.89917023 75.18910236 105.44189413 68.46772946 104.98828125 61.74609375 C104.59081696 62.46044083 104.19335266 63.1747879 103.78384399 63.91078186 C97.0982802 75.92270784 90.3761684 87.91116439 83.48828125 99.80859375 C82.92608887 100.78763672 82.36389648 101.76667969 81.78466797 102.77539062 C71.43532432 120.55937739 71.43532432 120.55937739 62.984375 123.42578125 C52.39963697 126.04062347 36.82499675 126.94345073 26.98828125 121.74609375 C23.40676834 118.81082347 20.73398001 115.4600126 17.98828125 111.74609375 C17.23289062 110.74191406 16.4775 109.73773438 15.69921875 108.703125 C7.01415263 96.63299095 0.64246757 82.99799052 -6.01171875 69.74609375 C-6.56867432 68.67431885 -7.12562988 67.60254395 -7.69946289 66.49829102 C-9.01171875 63.74609375 -9.01171875 63.74609375 -9.01171875 61.74609375 C-9.67171875 61.74609375 -10.33171875 61.74609375 -11.01171875 61.74609375 C-10.98561523 62.97114624 -10.98561523 62.97114624 -10.95898438 64.22094727 C-10.82342364 76.09138768 -11.65381194 87.84898116 -12.51171875 99.68359375 C-13.00671875 106.63421875 -13.50171875 113.58484375 -14.01171875 120.74609375 C-30.84171875 120.74609375 -47.67171875 120.74609375 -65.01171875 120.74609375 C-65.01171875 80.48609375 -65.01171875 40.22609375 -65.01171875 -1.25390625 C-14.5252376 -10.87037885 -14.5252376 -10.87037885 0 0 Z " fill="#FFFFFF" transform="translate(1261.01171875,88.25390625)"/>
<path d="M0 0 C26.50519316 -0.9038429 52.01066982 3.40036272 74.96289062 17.078125 C75.87296875 17.60535156 76.78304687 18.13257812 77.72070312 18.67578125 C80.15803 20.10837933 82.56112836 21.5868347 84.96289062 23.078125 C85.85492188 23.60921875 86.74695313 24.1403125 87.66601562 24.6875 C93.54204174 28.2656388 98.61600352 32.20686171 103.63867188 36.90625 C105.65515939 38.79056439 107.71844624 40.56264968 109.83789062 42.328125 C134.67541655 64.11103584 153.0545341 95.90650189 155.96289062 129.078125 C156.11055793 132.22307552 156.14961515 135.36358615 156.16601562 138.51171875 C156.1717157 139.38852798 156.17741577 140.26533722 156.18328857 141.16871643 C156.19267686 143.0166811 156.19924777 144.86466204 156.203125 146.71264648 C156.21275733 149.4773656 156.24380995 152.2413163 156.27539062 155.00585938 C156.4889196 190.75556779 144.71647 223.75268798 119.57617188 249.45703125 C118.37246633 250.66478205 117.16804733 251.87182224 115.96289062 253.078125 C115.37435303 253.68205078 114.78581543 254.28597656 114.17944336 254.90820312 C110.45113555 258.71135583 106.60669685 262.1875906 102.40039062 265.453125 C101.79888184 265.92081299 101.19737305 266.38850098 100.57763672 266.87036133 C74.91641513 286.53862263 46.36070731 298.23789634 13.96289062 299.078125 C12.33287109 299.14 12.33287109 299.14 10.66992188 299.203125 C-20.16684234 299.86896606 -49.93600101 293.84376022 -77.03710938 279.078125 C-78.09542969 278.51222656 -79.15375 277.94632812 -80.24414062 277.36328125 C-110.43026914 260.54925161 -137.04776029 230.64755547 -146.9230957 197.14868164 C-150.89070004 182.90691371 -152.69689201 169.4162358 -152.47460938 154.640625 C-152.46745911 153.79027679 -152.46030884 152.93992859 -152.45294189 152.06381226 C-152.34364468 139.57125771 -152.03797772 127.26493982 -149.03710938 115.078125 C-148.83843262 114.26472656 -148.63975586 113.45132813 -148.43505859 112.61328125 C-143.93825922 94.90902845 -136.54757005 78.99014129 -126.03710938 64.078125 C-125.64797363 63.52141113 -125.25883789 62.96469727 -124.85791016 62.39111328 C-111.62650507 43.69585882 -93.20292583 30.51388668 -73.03710938 20.078125 C-72.37517578 19.73152832 -71.71324219 19.38493164 -71.03125 19.02783203 C-49.23685162 7.75468477 -24.54990059 0.94151105 0 0 Z M-99.99804688 66.19921875 C-113.16353432 80.93574016 -122.58636189 99.12217729 -128.03710938 118.078125 C-128.59398437 119.78548828 -128.59398437 119.78548828 -129.16210938 121.52734375 C-138.41329018 152.78220111 -128.86043124 186.62201691 -114.36328125 214.6484375 C-111.13950165 220.55474358 -107.2931391 225.88032154 -103.03710938 231.078125 C-101.81121094 232.5940625 -101.81121094 232.5940625 -100.56054688 234.140625 C-80.62957284 257.26296345 -53.40077249 269.1224563 -24.03710938 275.078125 C-22.92980469 275.30628906 -21.8225 275.53445313 -20.68164062 275.76953125 C-0.89630832 279.0864158 20.6961481 278.83529859 39.96289062 273.078125 C40.81141602 272.83143066 41.65994141 272.58473633 42.53417969 272.33056641 C71.62153279 263.71855292 96.27128588 248.8308866 112.96289062 223.078125 C113.3507373 222.49579102 113.73858398 221.91345703 114.13818359 221.31347656 C131.3442312 195.3276554 140.74840197 160.5013821 135.05664062 129.4375 C129.35151771 102.74619079 116.62360101 79.83854575 97.96289062 60.078125 C97.35574219 59.42972656 96.74859375 58.78132813 96.12304688 58.11328125 C74.17320696 35.36707526 38.44428069 23.74237608 7.44726562 22.83203125 C-33.08768057 22.18073843 -71.88577825 35.93521585 -99.99804688 66.19921875 Z " fill="#190BEF" transform="translate(175.037109375,7.921875)"/>
<path d="M0 0 C0.79664063 0.60457031 1.59328125 1.20914063 2.4140625 1.83203125 C13.65374535 11.06060028 19.20383427 23.55139196 20.82128906 37.86450195 C22.47933043 57.6771902 20.17122487 75.17551932 8.16015625 91.52734375 C3.4976956 96.86430142 -1.45261712 100.07221251 -7.8125 103 C-8.55387207 103.34248779 -9.29524414 103.68497559 -10.05908203 104.0378418 C-17.83150861 107.52189151 -25.70960021 110.07217382 -34 112 C-34.7022168 112.16371094 -35.40443359 112.32742187 -36.12792969 112.49609375 C-65.01357336 118.85961288 -99.45996884 117.65317618 -125.14453125 102.01171875 C-140.22521863 91.38715787 -146.84689752 77.00851981 -150.61621094 59.43212891 C-151.32453663 54.94336266 -151.28739666 50.47184529 -151.25 45.9375 C-151.25773438 44.99583984 -151.26546875 44.05417969 -151.2734375 43.08398438 C-151.2333621 28.68689556 -145.2957769 17.76876938 -136 7 C-135.42894531 6.33355469 -134.85789062 5.66710937 -134.26953125 4.98046875 C-122.24355006 -8.01989898 -108.99088964 -12.02642948 -92 -15 C-90.77023437 -15.24492188 -89.54046875 -15.48984375 -88.2734375 -15.7421875 C-59.40894244 -20.67686698 -24.05806014 -18.42319888 0 0 Z M-93 33 C-98.21070849 43.21959376 -97.21531004 53.32057736 -94 64 C-90.70291031 70.66088351 -84.6172653 74.20506657 -77.8125 76.8125 C-68.10910472 79.64548429 -58.33402929 80.02953035 -49 76 C-47.77603516 75.505 -47.77603516 75.505 -46.52734375 75 C-41.06531079 72.44216993 -38.76722373 69.82263005 -36.65625 64.18359375 C-34.8947866 58.32253399 -34.74523258 52.92060661 -34.6875 46.8125 C-34.65849609 45.80896484 -34.62949219 44.80542969 -34.59960938 43.77148438 C-34.54357905 37.14697559 -35.31840579 31.64116482 -39 26 C-47.35634466 19.48205116 -59.58505009 18.67158944 -69.85498047 19.61083984 C-78.47988038 21.17561226 -87.32981259 26.4139384 -93 33 Z " fill="#FFFFFF" transform="translate(681,100)"/>
<path d="M0 0 C16.83 0 33.66 0 51 0 C53.86189969 2.86189969 54.88507517 4.05884806 55.12025452 8.03117371 C55.11803391 8.80616714 55.11581329 9.58116058 55.11352539 10.37963867 C55.11340454 11.27259644 55.11328369 12.1655542 55.11315918 13.08557129 C55.10804321 14.02026245 55.10292725 14.95495361 55.09765625 15.91796875 C55.09664917 16.77990845 55.09564209 17.64184814 55.09460449 18.52990723 C55.08937322 21.74911835 55.07541195 24.96831052 55.0625 28.1875 C55.041875 35.385625 55.02125 42.58375 55 50 C73.81 50 92.62 50 112 50 C112 33.5 112 17 112 0 C130.15 0 148.3 0 167 0 C167 40.26 167 80.52 167 122 C148.85 122 130.7 122 112 122 C112 106.82 112 91.64 112 76 C93.19 76 74.38 76 55 76 C55 91.18 55 106.36 55 122 C36.85 122 18.7 122 0 122 C0 81.74 0 41.48 0 0 Z " fill="#FFFFFF" transform="translate(350,87)"/>
<path d="M0 0 C46.86 0 93.72 0 142 0 C142 11.55 142 23.1 142 35 C113.29 35 84.58 35 55 35 C55 39.95 55 44.9 55 50 C79.75 50 104.5 50 130 50 C130 58.58 130 67.16 130 76 C105.25 76 80.5 76 55 76 C55 81.28 55 86.56 55 92 C85.03 92 115.06 92 146 92 C146 101.9 146 111.8 146 122 C97.82 122 49.64 122 0 122 C0 81.74 0 41.48 0 0 Z " fill="#FFFFFF" transform="translate(1446,87)"/>
<path d="M0 0 C2.83214234 -0.00440305 5.66275646 -0.04099828 8.49462891 -0.07861328 C31.20752455 -0.21971245 54.9295093 5.35134104 71.92431641 21.47998047 C77.52759845 27.60101958 79.02019221 32.35378368 78.82666016 40.68310547 C78.81763672 41.42367187 78.80861328 42.16423828 78.79931641 42.92724609 C78.77590229 44.74184014 78.74003631 46.55626618 78.70166016 48.37060547 C69.48788626 49.93585766 58.81108226 51.70515865 50.61767578 46.35791016 C45.72218191 42.04097465 41.57922079 37.24809676 37.39306641 32.25732422 C32.97358048 27.18883905 29.27981957 25.37897555 22.70166016 24.37060547 C22.00177979 24.24081299 21.30189941 24.11102051 20.58081055 23.97729492 C18.53941229 23.63652725 16.51056522 23.39202873 14.45166016 23.18310547 C13.69933105 23.10415039 12.94700195 23.02519531 12.171875 22.94384766 C-4.98633866 21.33101048 -24.14243661 19.95100027 -39.29833984 29.37060547 C-45.42936182 35.50162745 -44.91695733 48.21691045 -45.29833984 56.37060547 C-44.74106201 56.4758252 -44.18378418 56.58104492 -43.60961914 56.68945312 C-37.33707226 57.90593941 -31.13220341 59.34077371 -24.91992188 60.83251953 C-11.60187394 64.02502686 1.71362343 66.7639835 15.23583984 68.96191406 C20.17790542 69.78102473 25.09628079 70.71905147 30.01416016 71.67138672 C32.48711728 72.1403055 34.96681781 72.57487571 37.45166016 72.97607422 C51.43623541 75.37967309 63.50841803 80.63766013 74.70166016 89.37060547 C75.60916016 89.96873047 76.51666016 90.56685547 77.45166016 91.18310547 C81.0773138 94.70804651 83.34509222 98.92833948 85.70166016 103.37060547 C86.04712891 104.00998047 86.39259766 104.64935547 86.74853516 105.30810547 C89.65438529 111.66807934 89.11236443 118.53358728 88.70166016 125.37060547 C88.66685547 126.10408203 88.63205078 126.83755859 88.59619141 127.59326172 C87.5246684 134.90757093 81.34854972 140.93110264 76.70166016 146.37060547 C75.62851562 147.63517578 75.62851562 147.63517578 74.53369141 148.92529297 C68.55633014 155.4073095 61.46879416 159.42880736 53.70166016 163.37060547 C52.90373047 163.79341797 52.10580078 164.21623047 51.28369141 164.65185547 C28.02672082 175.51882933 -12.2640472 174.05405861 -36.29833984 166.37060547 C-37.47783203 165.99677734 -38.65732422 165.62294922 -39.87255859 165.23779297 C-43.09711924 164.08534644 -46.18215381 162.78848986 -49.29833984 161.37060547 C-51.05597656 160.59910156 -51.05597656 160.59910156 -52.84912109 159.81201172 C-63.79023577 154.82117341 -72.97228288 147.73729419 -79.29833984 137.37060547 C-79.64251953 136.82355957 -79.98669922 136.27651367 -80.34130859 135.71289062 C-83.57249976 130.0654421 -83.79051449 125.27891925 -83.54833984 118.87060547 C-83.53029297 117.95279297 -83.51224609 117.03498047 -83.49365234 116.08935547 C-83.44697087 113.84864455 -83.38152506 111.61020748 -83.29833984 109.37060547 C-79.73599556 109.28319423 -76.17392877 109.23007651 -72.61083984 109.18310547 C-71.6034375 109.15796875 -70.59603516 109.13283203 -69.55810547 109.10693359 C-60.0133206 109.01243077 -60.0133206 109.01243077 -56.29833984 112.37060547 C-54.66450144 114.41570114 -53.21988612 116.3788585 -51.79833984 118.55810547 C-51.41105713 119.1360083 -51.02377441 119.71391113 -50.62475586 120.30932617 C-49.50463197 121.98892579 -48.40110862 123.6795604 -47.29833984 125.37060547 C-46.74017578 126.21623047 -46.18201172 127.06185547 -45.60693359 127.93310547 C-42.29833984 133.06095447 -42.29833984 133.06095447 -42.29833984 135.37060547 C-41.57259766 135.65935547 -40.84685547 135.94810547 -40.09912109 136.24560547 C-38.36291391 136.94299413 -36.63033256 137.64957751 -34.90380859 138.37060547 C-34.10587891 138.70060547 -33.30794922 139.03060547 -32.48583984 139.37060547 C-31.69564453 139.70060547 -30.90544922 140.03060547 -30.09130859 140.37060547 C-22.82854821 142.97097842 -16.35512762 143.68851595 -8.69287109 143.70654297 C-7.69180832 143.71319977 -6.69074554 143.71985657 -5.65934753 143.72671509 C-3.54903995 143.73679707 -1.43870078 143.74153349 0.67163086 143.74121094 C3.86252824 143.74556909 7.05202384 143.78189597 10.24267578 143.81982422 C23.51401534 143.89445705 35.56882334 143.52084437 46.88916016 135.74560547 C48.20980469 134.86001953 48.20980469 134.86001953 49.55712891 133.95654297 C51.76634248 132.40464798 51.76634248 132.40464798 53.70166016 130.37060547 C53.9785208 128.33593113 53.9785208 128.33593113 53.89697266 126.01904297 C53.89052734 125.16826172 53.88408203 124.31748047 53.87744141 123.44091797 C53.86068359 122.55146484 53.84392578 121.66201172 53.82666016 120.74560547 C53.81763672 119.84841797 53.80861328 118.95123047 53.79931641 118.02685547 C53.77570985 115.80783961 53.74278325 113.58935469 53.70166016 111.37060547 C46.9218917 107.71036238 39.95241586 105.26119471 32.63916016 102.87060547 C30.83161255 102.27578369 30.83161255 102.27578369 28.98754883 101.66894531 C13.75863291 96.70248119 -1.50670447 92.74193718 -17.41552734 90.69482422 C-37.78401979 88.07232738 -57.02678843 83.47184296 -71.29833984 67.37060547 C-77.94807661 56.95166307 -78.4515649 46.30027264 -76.79833984 34.18310547 C-75.34184411 27.90261321 -71.37138885 23.21947334 -67.29833984 18.37060547 C-66.73888672 17.69771484 -66.17943359 17.02482422 -65.60302734 16.33154297 C-49.63440696 -1.17993929 -21.75920684 -0.00377044 0 0 Z " fill="#0D00EF" transform="translate(175.29833984375,77.62939453125)"/>
<path d="M0 0 C18.48 0 36.96 0 56 0 C56 40.26 56 80.52 56 122 C37.52 122 19.04 122 0 122 C0 81.74 0 41.48 0 0 Z " fill="#FFFFFF" transform="translate(1116,87)"/>
</svg>
