<?xml version="1.0" encoding="UTF-8"?>
<svg version="1.1" xmlns="http://www.w3.org/2000/svg" width="800" height="769">
<path d="M0 0 C1.70012741 0.00273422 1.70012741 0.00273422 3.43460083 0.00552368 C21.62520609 0.05458339 39.47267692 0.70113678 57.5 3.3125 C58.69947266 3.48410645 59.89894531 3.65571289 61.13476562 3.83251953 C98.85861475 9.4132952 136.42004793 19.95616474 171.01513672 36.15087891 C173.46004854 37.29382354 175.91730226 38.40526275 178.37890625 39.51171875 C212.73462747 55.13306632 244.99447024 77.16431233 272.69921875 102.7578125 C274.88296146 104.74967823 277.09089275 106.69086297 279.328125 108.62109375 C283.57980783 112.33048798 287.58549167 116.24984711 291.5625 120.25 C292.23087891 120.91451172 292.89925781 121.57902344 293.58789062 122.26367188 C298.09699827 126.78154358 302.34770609 131.46636342 306.5 136.3125 C307.38921501 137.33342733 308.27852941 138.35426811 309.16796875 139.375 C374.08613836 215.06254038 406.63689137 313.63053886 399.48217773 413.03344727 C392.89743886 495.7707181 359.69299281 573.3743096 304.5 635.3125 C303.79157959 636.10769043 303.79157959 636.10769043 303.06884766 636.91894531 C296.99051604 643.69950447 290.67281541 650.23333194 284.25 656.6875 C283.60063477 657.34153809 282.95126953 657.99557617 282.28222656 658.66943359 C277.85150363 663.08552996 273.24422066 667.23716109 268.5 671.3125 C267.52417969 672.16972656 266.54835938 673.02695312 265.54296875 673.91015625 C197.97158813 732.23784595 105.73349983 769.14676401 16.1328125 769.515625 C14.98757111 769.52263931 13.84232971 769.52965363 12.66238403 769.53688049 C8.98321561 769.55429806 5.30420815 769.56073351 1.625 769.5625 C0.36812378 769.56317474 -0.88875244 769.56384949 -2.18371582 769.56454468 C-20.81413612 769.5486403 -39.05565746 769.14751543 -57.5 766.3125 C-59.18657715 766.06306641 -59.18657715 766.06306641 -60.90722656 765.80859375 C-98.7605084 760.06519049 -135.76267065 749.43263814 -170.5 733.3125 C-171.43328125 732.88888184 -172.3665625 732.46526367 -173.328125 732.02880859 C-208.83235681 715.90760771 -241.35487639 694.17152211 -270.5 668.3125 C-271.45777344 667.466875 -272.41554688 666.62125 -273.40234375 665.75 C-279.72508058 660.06040417 -285.78608191 654.12570602 -291.8125 648.125 C-292.56563477 647.37653809 -293.31876953 646.62807617 -294.09472656 645.85693359 C-362.13974694 577.61612187 -399.14921638 480.47790454 -399.75 384.8125 C-399.16921722 292.40451552 -365.09122612 202.12319976 -302.7265625 133.7578125 C-301.29120759 132.18144026 -299.8682661 130.59363039 -298.4609375 128.9921875 C-289.18965436 118.47084371 -279.27326358 108.30387397 -268.5 99.3125 C-267.57445312 98.50941406 -266.64890625 97.70632812 -265.6953125 96.87890625 C-244.48490646 78.52444967 -221.03613135 62.8567091 -196.5 49.3125 C-195.82018066 48.93077637 -195.14036133 48.54905273 -194.43994141 48.15576172 C-153.79950821 25.3872669 -107.68593724 11.03657954 -61.75 4.0625 C-60.75935547 3.91135742 -59.76871094 3.76021484 -58.74804688 3.60449219 C-39.20883636 0.82839525 -19.71621158 -0.06629404 0 0 Z " fill="#FE0000" transform="translate(399.5,-0.3125)"/>
<path d="M0 0 C1.70012741 0.00273422 1.70012741 0.00273422 3.43460083 0.00552368 C21.62520609 0.05458339 39.47267692 0.70113678 57.5 3.3125 C58.69947266 3.48410645 59.89894531 3.65571289 61.13476562 3.83251953 C98.85861475 9.4132952 136.42004793 19.95616474 171.01513672 36.15087891 C173.46004854 37.29382354 175.91730226 38.40526275 178.37890625 39.51171875 C212.73462747 55.13306632 244.99447024 77.16431233 272.69921875 102.7578125 C274.88296146 104.74967823 277.09089275 106.69086297 279.328125 108.62109375 C283.57980783 112.33048798 287.58549167 116.24984711 291.5625 120.25 C292.23087891 120.91451172 292.89925781 121.57902344 293.58789062 122.26367188 C298.09699827 126.78154358 302.34770609 131.46636342 306.5 136.3125 C307.38921501 137.33342733 308.27852941 138.35426811 309.16796875 139.375 C374.08613836 215.06254038 406.63689137 313.63053886 399.48217773 413.03344727 C392.89743886 495.7707181 359.69299281 573.3743096 304.5 635.3125 C303.79157959 636.10769043 303.79157959 636.10769043 303.06884766 636.91894531 C296.99051604 643.69950447 290.67281541 650.23333194 284.25 656.6875 C283.60063477 657.34153809 282.95126953 657.99557617 282.28222656 658.66943359 C277.85150363 663.08552996 273.24422066 667.23716109 268.5 671.3125 C267.52417969 672.16972656 266.54835938 673.02695312 265.54296875 673.91015625 C197.97158813 732.23784595 105.73349983 769.14676401 16.1328125 769.515625 C14.98757111 769.52263931 13.84232971 769.52965363 12.66238403 769.53688049 C8.98321561 769.55429806 5.30420815 769.56073351 1.625 769.5625 C0.36812378 769.56317474 -0.88875244 769.56384949 -2.18371582 769.56454468 C-20.81413612 769.5486403 -39.05565746 769.14751543 -57.5 766.3125 C-59.18657715 766.06306641 -59.18657715 766.06306641 -60.90722656 765.80859375 C-98.7605084 760.06519049 -135.76267065 749.43263814 -170.5 733.3125 C-171.43328125 732.88888184 -172.3665625 732.46526367 -173.328125 732.02880859 C-208.83235681 715.90760771 -241.35487639 694.17152211 -270.5 668.3125 C-271.45777344 667.466875 -272.41554688 666.62125 -273.40234375 665.75 C-279.72508058 660.06040417 -285.78608191 654.12570602 -291.8125 648.125 C-292.56563477 647.37653809 -293.31876953 646.62807617 -294.09472656 645.85693359 C-362.13974694 577.61612187 -399.14921638 480.47790454 -399.75 384.8125 C-399.16921722 292.40451552 -365.09122612 202.12319976 -302.7265625 133.7578125 C-301.29120759 132.18144026 -299.8682661 130.59363039 -298.4609375 128.9921875 C-289.18965436 118.47084371 -279.27326358 108.30387397 -268.5 99.3125 C-267.57445312 98.50941406 -266.64890625 97.70632812 -265.6953125 96.87890625 C-244.48490646 78.52444967 -221.03613135 62.8567091 -196.5 49.3125 C-195.82018066 48.93077637 -195.14036133 48.54905273 -194.43994141 48.15576172 C-153.79950821 25.3872669 -107.68593724 11.03657954 -61.75 4.0625 C-60.75935547 3.91135742 -59.76871094 3.76021484 -58.74804688 3.60449219 C-39.20883636 0.82839525 -19.71621158 -0.06629404 0 0 Z M-49.1875 55.4375 C-49.9353476 55.54542877 -50.68319519 55.65335754 -51.45370483 55.76455688 C-109.07395062 64.18442878 -164.91803646 86.05563704 -211.5 121.3125 C-212.06203125 121.73708496 -212.6240625 122.16166992 -213.203125 122.59912109 C-217.36327966 125.76257203 -221.44942481 129.01015606 -225.5 132.3125 C-226.06203125 132.76866699 -226.6240625 133.22483398 -227.203125 133.69482422 C-236.06332205 140.95215879 -244.2603934 148.86761049 -252.375 156.9375 C-252.86136932 157.41860229 -253.34773865 157.89970459 -253.84884644 158.39538574 C-260.52980002 165.02027992 -266.64632918 171.94524962 -272.5 179.3125 C-273.50047578 180.52107718 -274.50391303 181.72721579 -275.51171875 182.9296875 C-301.41485581 214.26565675 -319.81684929 250.86168233 -332.5 289.3125 C-332.77424805 290.13153809 -333.04849609 290.95057617 -333.33105469 291.79443359 C-337.59575719 304.67774877 -340.1795049 317.96020493 -342.5 331.3125 C-342.70044922 332.44333008 -342.90089844 333.57416016 -343.10742188 334.73925781 C-348.64182022 367.13817008 -348.82263011 401.06072119 -343.01269531 433.42236328 C-342.54162239 436.07786863 -342.1278053 438.73329495 -341.7421875 441.40234375 C-337.51620988 470.19049093 -327.4450578 499.31473319 -314.5 525.3125 C-314.08282715 526.15780273 -313.6656543 527.00310547 -313.23583984 527.87402344 C-300.72602063 553.02344139 -285.17016537 576.30554094 -266.5 597.3125 C-265.52933594 598.41235229 -265.52933594 598.41235229 -264.5390625 599.53442383 C-258.92432698 605.84419329 -253.09448732 611.90112335 -247.125 617.875 C-245.82175781 619.19661133 -245.82175781 619.19661133 -244.4921875 620.54492188 C-238.47646493 626.57399295 -232.15822629 632.00905415 -225.5 637.3125 C-224.32624652 638.28915894 -223.15517169 639.26905772 -221.98828125 640.25390625 C-152.10290997 698.37186235 -56.99111061 724.13605529 32.87084961 716.43408203 C45.67601847 715.16663929 58.38524626 713.28854145 71.00976562 710.80224609 C73.27955124 710.35585492 75.55275996 709.93625897 77.828125 709.51953125 C129.5531657 699.5209313 180.67917505 674.20531349 221.5 641.3125 C222.41523437 640.58933594 223.33046875 639.86617187 224.2734375 639.12109375 C242.4509111 624.56348953 260.3889941 607.85839346 274.5 589.3125 C275.58098364 587.95645691 276.66455728 586.60247646 277.75 585.25 C301.66216314 555.28143835 319.29546069 521.5989498 331.5 485.3125 C331.83016113 484.35424316 332.16032227 483.39598633 332.50048828 482.40869141 C337.04756236 469.18769098 340.2772869 456.10873078 342.5 442.3125 C342.67660156 441.23790527 342.85320313 440.16331055 343.03515625 439.05615234 C343.59610477 435.62230404 344.14518971 432.18683932 344.6875 428.75 C344.85467529 427.69200195 345.02185059 426.63400391 345.1940918 425.54394531 C349.38304287 398.04923293 349.00879064 369.32908942 345.25 341.8125 C345.14757996 341.05382629 345.04515991 340.29515259 344.93963623 339.51348877 C342.78162669 323.89975523 339.48691242 308.54008757 334.75 293.5 C334.23022583 291.84182251 334.23022583 291.84182251 333.69995117 290.15014648 C320.74797853 249.42426735 300.58210372 212.34175088 273.5 179.3125 C273.04141602 178.74950195 272.58283203 178.18650391 272.11035156 177.60644531 C264.99445763 168.93870702 257.27759523 160.88606291 249.375 152.9375 C248.46903076 152.02226562 247.56306152 151.10703125 246.62963867 150.1640625 C240.55886396 144.12128394 234.1885133 138.65573925 227.5 133.3125 C226.46075756 132.43734847 225.42564002 131.55722127 224.3984375 130.66796875 C210.2366219 118.50108383 194.65578106 108.60079286 178.5 99.3125 C177.63777832 98.81218262 176.77555664 98.31186523 175.88720703 97.79638672 C108.93830071 59.17631486 27.2044066 44.33106248 -49.1875 55.4375 Z " fill="#0000FE" transform="translate(399.5,-0.3125)"/>
<path d="M0 0 C0.87650208 0.00060425 1.75300415 0.0012085 2.65606689 0.00183105 C66.82256883 0.12121059 138.43005435 10.22347202 185.79370117 57.54199219 C204.03075535 76.43960899 216.26137236 102.68988737 216 129.1875 C209.604246 129.62610628 203.20770785 130.05166161 196.81054688 130.46923828 C194.64629657 130.61192558 192.4822226 130.7573199 190.31835938 130.90576172 C174.85659697 131.96389909 159.497545 132.39261921 144 132.1875 C143.87180374 131.63490509 143.74360748 131.08231018 143.61152649 130.51296997 C138.0989483 106.89221809 128.06025808 86.46447912 107.02978516 72.91845703 C76.16029577 53.99844741 40.5404356 51.8108613 5.32080078 51.87182617 C1.50394348 51.87499672 -2.31214325 51.85137553 -6.12890625 51.82617188 C-41.18056021 51.73511172 -79.65849286 55.99147598 -107 80.1875 C-107.63550781 80.72890625 -108.27101563 81.2703125 -108.92578125 81.828125 C-117.342439 89.51695647 -122.48101122 99.54271286 -123.24609375 110.8125 C-123.73671072 122.64863437 -121.89206052 132.84893679 -113.953125 142.10546875 C-113.30859375 142.79253906 -112.6640625 143.47960937 -112 144.1875 C-111.37609375 144.86425781 -110.7521875 145.54101562 -110.109375 146.23828125 C-81.42920403 174.42585387 -22.49859271 177.6528042 15.20272827 184.06607056 C162.42694278 209.13616517 162.42694278 209.13616517 199.7890625 245.08203125 C202.05983735 247.30239644 202.05983735 247.30239644 204.94140625 249.55859375 C219.38753068 261.50197047 228.27586544 280.18751628 232 298.1875 C232.1750708 298.97205566 232.3501416 299.75661133 232.53051758 300.56494141 C233.34623741 305.12160416 233.18454015 309.69514002 233.1875 314.3125 C233.19974609 315.29476563 233.21199219 316.27703125 233.22460938 317.2890625 C233.28068792 345.70219331 218.90596609 369.94992601 199.47119141 389.73046875 C180.88604971 408.13672923 156.9068539 419.56893804 132.54052734 428.27783203 C130.95903026 428.84410708 129.38058438 429.419074 127.80712891 430.00732422 C116.45101586 434.23403894 104.73797919 436.62887714 92.875 438.9375 C92.12855225 439.08647736 91.38210449 439.23545471 90.61303711 439.38894653 C66.36627255 444.17888676 41.82639155 444.63162219 17.1875 444.625 C16.47188652 444.62561684 15.75627304 444.62623367 15.0189743 444.6268692 C-35.15732866 444.65814563 -87.40510475 439.83727598 -133 417.1875 C-134.1768335 416.61128906 -134.1768335 416.61128906 -135.37744141 416.0234375 C-150.00550372 408.80688796 -162.79449499 400.54374087 -174.6796875 389.3515625 C-177.06608237 387.0622134 -177.06608237 387.0622134 -180.125 384.75 C-184.66194485 380.70620133 -188.27213567 375.97138051 -192 371.1875 C-192.67289063 370.341875 -193.34578125 369.49625 -194.0390625 368.625 C-205.00373797 354.29665915 -212.62991257 337.6843265 -216.3125 320.0625 C-216.57027222 318.84566528 -216.57027222 318.84566528 -216.83325195 317.60424805 C-217.69259609 313.14777462 -218.08197079 308.91866967 -218.04370117 304.37548828 C-218.03739182 303.39959747 -218.03108246 302.42370667 -218.02458191 301.41824341 C-218.01646988 300.68209808 -218.00835785 299.94595276 -218 299.1875 C-210.78234164 298.60787881 -203.56385261 298.03955793 -196.34472656 297.47851562 C-193.89693808 297.28701104 -191.44933903 297.09306686 -189.00195312 296.89648438 C-174.97509858 295.77158115 -161.07562016 294.85385567 -147 295.1875 C-146.8956665 295.72415283 -146.79133301 296.26080566 -146.68383789 296.8137207 C-142.77112976 316.32340726 -136.20458748 333.12128216 -123 348.1875 C-122.06800781 349.28578125 -122.06800781 349.28578125 -121.1171875 350.40625 C-104.59431949 368.43119692 -77.97521061 377.98423443 -55 384.1875 C-54.11521973 384.42694336 -53.23043945 384.66638672 -52.31884766 384.91308594 C-45.92508152 386.59645471 -39.501186 387.98712498 -33 389.1875 C-32.11183594 389.35266113 -31.22367188 389.51782227 -30.30859375 389.68798828 C-14.19833355 392.48989864 2.01134423 392.47290824 18.3125 392.5 C19.37464722 392.50367584 20.43679443 392.50735168 21.53112793 392.51113892 C61.40669583 392.58307898 112.3791539 388.49372343 142.9765625 359.375 C154.10440587 347.34489906 160.56799517 333.70044696 160.25390625 317.2421875 C159.13695029 303.80434816 152.66759626 291.89664672 142.5625 283.0546875 C131.00442818 274.28293656 117.9188753 268.23046689 104.1875 263.75 C103.49503174 263.52105042 102.80256348 263.29210083 102.08911133 263.05621338 C73.4426193 253.67071373 43.4182308 248.99353579 13.82446289 243.63012695 C-126.99265497 218.09245537 -126.99265497 218.09245537 -169 181.1875 C-169.62003906 180.65125 -170.24007812 180.115 -170.87890625 179.5625 C-184.43458903 166.98181992 -195.03300949 147.67648476 -196.19287109 129.09814453 C-196.90139618 100.2719087 -196.90139618 100.2719087 -191 87.1875 C-190.73767578 86.58454102 -190.47535156 85.98158203 -190.20507812 85.36035156 C-184.6041324 72.62055055 -176.49357374 62.25439791 -167 52.1875 C-166.38769531 51.51074219 -165.77539062 50.83398438 -165.14453125 50.13671875 C-132.74312685 15.66272985 -76.82243871 5.34012234 -32 1.1875 C-31.030625 1.09251221 -30.06125 0.99752441 -29.0625 0.8996582 C-19.37776549 0.03986288 -9.7149552 -0.01239943 0 0 Z " fill="#0100FD" transform="translate(391,168.8125)"/>
</svg>
